<svg width="60" height="60" viewBox="0 0 60 60" fill="none" xmlns="http://www.w3.org/2000/svg">
<circle cx="30" cy="30" r="30" fill="#FFDF81"/>
<path fill-rule="evenodd" clip-rule="evenodd" d="M19.9242 17.4242C20.2758 17.0725 20.7527 16.875 21.25 16.875H33.125V18.75C33.125 19.0952 33.4048 19.375 33.75 19.375C34.0952 19.375 34.375 19.0952 34.375 18.75V16.875H38.75C39.2473 16.875 39.7242 17.0725 40.0758 17.4242C40.4275 17.7758 40.625 18.2527 40.625 18.75V21.9381C40.0291 22.0598 39.4768 22.3538 39.0403 22.7903C38.4542 23.3763 38.125 24.1712 38.125 25C38.125 25.8288 38.4542 26.6237 39.0403 27.2097C39.4768 27.6462 40.0291 27.9402 40.625 28.0619V31.25C40.625 31.7473 40.4275 32.2242 40.0758 32.5758C39.7242 32.9275 39.2473 33.125 38.75 33.125H34.375V31.25C34.375 30.9048 34.0952 30.625 33.75 30.625C33.4048 30.625 33.125 30.9048 33.125 31.25V33.125H21.25C20.7527 33.125 20.2758 32.9275 19.9242 32.5758C19.5725 32.2242 19.375 31.7473 19.375 31.25V28.0619C19.9709 27.9402 20.5232 27.6462 20.9597 27.2097C21.5458 26.6237 21.875 25.8288 21.875 25C21.875 24.1712 21.5458 23.3763 20.9597 22.7903C20.5232 22.3538 19.9709 22.0598 19.375 21.9381V18.75C19.375 18.2527 19.5725 17.7758 19.9242 17.4242ZM33.75 34.375H21.25C20.4212 34.375 19.6263 34.0458 19.0403 33.4597C18.4542 32.8737 18.125 32.0788 18.125 31.25V27.5C18.125 27.1548 18.4048 26.875 18.75 26.875C19.2473 26.875 19.7242 26.6775 20.0758 26.3258C20.4275 25.9742 20.625 25.4973 20.625 25C20.625 24.5027 20.4275 24.0258 20.0758 23.6742C19.7242 23.3225 19.2473 23.125 18.75 23.125C18.4048 23.125 18.125 22.8452 18.125 22.5V18.75C18.125 17.9212 18.4542 17.1263 19.0403 16.5403C19.6263 15.9542 20.4212 15.625 21.25 15.625H33.75H38.75C39.5788 15.625 40.3737 15.9542 40.9597 16.5403C41.5458 17.1263 41.875 17.9212 41.875 18.75V22.5C41.875 22.8452 41.5952 23.125 41.25 23.125C40.7527 23.125 40.2758 23.3225 39.9242 23.6742C39.5725 24.0258 39.375 24.5027 39.375 25C39.375 25.4973 39.5725 25.9742 39.9242 26.3258C40.2758 26.6775 40.7527 26.875 41.25 26.875C41.5952 26.875 41.875 27.1548 41.875 27.5V31.25C41.875 32.0788 41.5458 32.8737 40.9597 33.4597C40.3737 34.0458 39.5788 34.375 38.75 34.375H33.75ZM34.375 23.75C34.375 23.4048 34.0952 23.125 33.75 23.125C33.4048 23.125 33.125 23.4048 33.125 23.75V26.25C33.125 26.5952 33.4048 26.875 33.75 26.875C34.0952 26.875 34.375 26.5952 34.375 26.25V23.75Z" fill="#FF6D00"/>
<path d="M20.0357 47C19.9504 47 19.8891 46.9813 19.8517 46.944C19.8144 46.9067 19.7957 46.8453 19.7957 46.76V41.64C19.7957 41.5547 19.8144 41.4933 19.8517 41.456C19.8891 41.4187 19.9504 41.4 20.0357 41.4H22.8277C22.8864 41.4 22.9264 41.4187 22.9477 41.456C22.9744 41.4933 22.9877 41.5547 22.9877 41.64V41.768C22.9877 41.8533 22.9744 41.9147 22.9477 41.952C22.9264 41.9893 22.8864 42.008 22.8277 42.008H20.4997V43.832H22.5877C22.6464 43.832 22.6864 43.8507 22.7077 43.888C22.7344 43.9253 22.7477 43.9867 22.7477 44.072V44.2C22.7477 44.2853 22.7344 44.3467 22.7077 44.384C22.6864 44.4213 22.6464 44.44 22.5877 44.44H20.4997V46.392H22.8357C22.8944 46.392 22.9344 46.4107 22.9557 46.448C22.9824 46.4853 22.9957 46.5467 22.9957 46.632V46.76C22.9957 46.8453 22.9824 46.9067 22.9557 46.944C22.9344 46.9813 22.8944 47 22.8357 47H20.0357ZM25.1789 47.016C24.9922 47.016 24.8856 46.9733 24.8589 46.888L23.5709 43.04C23.5549 42.992 23.5469 42.9573 23.5469 42.936C23.5469 42.8453 23.6616 42.8 23.8909 42.8H23.9309C24.1176 42.8 24.2242 42.8427 24.2509 42.928L25.0669 45.48C25.1576 45.7733 25.2456 46.1067 25.3309 46.48H25.3629C25.3682 46.448 25.3976 46.3173 25.4509 46.088C25.5042 45.8587 25.5762 45.6133 25.6669 45.352L26.4429 42.928C26.4696 42.8427 26.5789 42.8 26.7709 42.8H26.7949C26.9922 42.8 27.0909 42.8453 27.0909 42.936C27.0909 42.9627 27.0829 43 27.0669 43.048L25.7789 46.888C25.7522 46.9733 25.6456 47.016 25.4589 47.016H25.1789ZM29.5836 47.048C28.9169 47.048 28.4236 46.8747 28.1036 46.528C27.7836 46.1813 27.6236 45.6507 27.6236 44.936C27.6236 44.2267 27.7809 43.688 28.0956 43.32C28.4103 42.952 28.8743 42.768 29.4876 42.768C30.0316 42.768 30.4423 42.9467 30.7196 43.304C30.9969 43.656 31.1356 44.1733 31.1356 44.856C31.1356 44.904 31.1036 44.9707 31.0396 45.056C30.9756 45.1413 30.9196 45.184 30.8716 45.184H28.3436C28.3756 45.6267 28.4903 45.952 28.6876 46.16C28.8849 46.368 29.1809 46.472 29.5756 46.472C29.7996 46.472 29.9916 46.4453 30.1516 46.392C30.3169 46.3333 30.4529 46.2773 30.5596 46.224C30.6663 46.1653 30.7276 46.136 30.7436 46.136C30.7969 46.136 30.8556 46.1893 30.9196 46.296C30.9889 46.4027 31.0236 46.4827 31.0236 46.536C31.0236 46.6 30.9569 46.6747 30.8236 46.76C30.6903 46.84 30.5116 46.9093 30.2876 46.968C30.0689 47.0213 29.8343 47.048 29.5836 47.048ZM30.4236 44.608C30.4236 43.7653 30.1036 43.344 29.4636 43.344C28.7756 43.344 28.4023 43.7653 28.3436 44.608H30.4236ZM32.5041 47.016C32.2908 47.016 32.1841 46.9573 32.1841 46.84V44.032C32.1841 43.68 32.1681 43.4293 32.1361 43.28C32.1041 43.1253 32.0881 43.04 32.0881 43.024C32.0881 42.96 32.1388 42.9147 32.2401 42.888C32.3414 42.856 32.4348 42.84 32.5201 42.84C32.5948 42.84 32.6481 42.88 32.6801 42.96C32.7174 43.0347 32.7441 43.1147 32.7601 43.2C32.7814 43.2853 32.7948 43.3413 32.8001 43.368C32.9708 43.1813 33.1654 43.0347 33.3841 42.928C33.6028 42.8213 33.8241 42.768 34.0481 42.768C34.4534 42.768 34.7708 42.8827 35.0001 43.112C35.2348 43.3413 35.3521 43.6587 35.3521 44.064V46.84C35.3521 46.9573 35.2454 47.016 35.0321 47.016H35.0001C34.7868 47.016 34.6801 46.9573 34.6801 46.84V44.128C34.6801 43.8827 34.6081 43.6933 34.4641 43.56C34.3254 43.4213 34.1254 43.352 33.8641 43.352C33.6828 43.352 33.5014 43.4027 33.3201 43.504C33.1441 43.6053 32.9894 43.7413 32.8561 43.912V46.84C32.8561 46.9573 32.7494 47.016 32.5361 47.016H32.5041ZM37.8372 47.048C37.5706 47.048 37.3306 46.968 37.1172 46.808C36.9092 46.6427 36.8052 46.3547 36.8052 45.944V43.392H36.4052C36.3519 43.392 36.3119 43.3733 36.2852 43.336C36.2586 43.2987 36.2452 43.2373 36.2452 43.152V43.056C36.2452 42.9707 36.2586 42.9093 36.2852 42.872C36.3119 42.8347 36.3519 42.816 36.4052 42.816H36.8052L36.9012 41.976C36.9172 41.8587 37.0026 41.8 37.1572 41.8H37.2372C37.3972 41.8 37.4772 41.8587 37.4772 41.976V42.816H38.1492C38.2079 42.816 38.2479 42.8347 38.2692 42.872C38.2959 42.9093 38.3092 42.9707 38.3092 43.056V43.152C38.3092 43.2373 38.2959 43.2987 38.2692 43.336C38.2479 43.3733 38.2079 43.392 38.1492 43.392H37.4772V45.88C37.4772 46.104 37.5146 46.2587 37.5892 46.344C37.6692 46.4293 37.7759 46.472 37.9092 46.472C38.0106 46.472 38.0852 46.4667 38.1332 46.456C38.1866 46.44 38.2266 46.432 38.2532 46.432C38.3012 46.432 38.3412 46.4827 38.3732 46.584C38.4052 46.68 38.4212 46.7547 38.4212 46.808C38.4212 46.968 38.2266 47.048 37.8372 47.048ZM40.2676 47.072C40.0383 47.072 39.8249 47.0453 39.6276 46.992C39.4356 46.9333 39.2809 46.864 39.1636 46.784C39.0516 46.704 38.9956 46.632 38.9956 46.568C38.9956 46.5147 39.0276 46.4347 39.0916 46.328C39.1609 46.2213 39.2223 46.168 39.2756 46.168C39.2863 46.168 39.3369 46.1973 39.4276 46.256C39.5183 46.3147 39.6303 46.368 39.7636 46.416C39.9023 46.464 40.0543 46.488 40.2196 46.488C40.4756 46.488 40.6703 46.4373 40.8036 46.336C40.9369 46.2347 41.0036 46.088 41.0036 45.896C41.0036 45.704 40.9369 45.5573 40.8036 45.456C40.6756 45.3547 40.4756 45.2587 40.2036 45.168C39.9743 45.0933 39.7823 45.0133 39.6276 44.928C39.4729 44.8373 39.3449 44.712 39.2436 44.552C39.1423 44.3867 39.0916 44.176 39.0916 43.92C39.0916 43.696 39.1476 43.496 39.2596 43.32C39.3769 43.144 39.5343 43.008 39.7316 42.912C39.9343 42.8107 40.1636 42.76 40.4196 42.76C40.6916 42.76 40.9343 42.7947 41.1476 42.864C41.3663 42.9333 41.4756 43.0133 41.4756 43.104C41.4756 43.1733 41.4436 43.264 41.3796 43.376C41.3209 43.4827 41.2676 43.536 41.2196 43.536C41.2036 43.5307 41.1316 43.496 41.0036 43.432C40.8809 43.3627 40.7103 43.328 40.4916 43.328C40.2836 43.328 40.1129 43.376 39.9796 43.472C39.8463 43.568 39.7796 43.6987 39.7796 43.864C39.7796 44.0187 39.8223 44.1387 39.9076 44.224C39.9983 44.3093 40.1636 44.392 40.4036 44.472C40.8196 44.6107 41.1369 44.7787 41.3556 44.976C41.5743 45.1733 41.6836 45.456 41.6836 45.824C41.6836 46.0587 41.6196 46.272 41.4916 46.464C41.3689 46.6507 41.1983 46.8 40.9796 46.912C40.7663 47.0187 40.5289 47.072 40.2676 47.072Z" fill="#FF6D00"/>
</svg>
