<svg width="60" height="60" viewBox="0 0 60 60" fill="none" xmlns="http://www.w3.org/2000/svg">
<circle cx="30" cy="30" r="30" fill="#ABFF91"/>
<path d="M18.6068 45.44C18.5268 45.44 18.4681 45.4053 18.4308 45.336L17.0068 42.856C16.9588 42.776 16.8948 42.656 16.8148 42.496L16.7828 42.504C16.7935 42.6 16.7988 42.7467 16.7988 42.944V46.84C16.7988 46.9573 16.6921 47.016 16.4788 47.016H16.4228C16.2095 47.016 16.1028 46.9573 16.1028 46.84V41.56C16.1028 41.4427 16.2095 41.384 16.4228 41.384H16.7108C16.8815 41.384 16.9935 41.432 17.0468 41.528L18.5588 44.152C18.6548 44.3173 18.7241 44.4853 18.7668 44.656C18.8095 44.5227 18.8921 44.3467 19.0148 44.128L20.4868 41.528C20.5401 41.432 20.6521 41.384 20.8228 41.384H21.0868C21.3001 41.384 21.4068 41.4427 21.4068 41.56V46.84C21.4068 46.9573 21.3001 47.016 21.0868 47.016H21.0308C20.8175 47.016 20.7108 46.9573 20.7108 46.84V42.992C20.7108 42.7947 20.7161 42.648 20.7268 42.552L20.6948 42.544C20.6148 42.704 20.5508 42.824 20.5028 42.904L19.1028 45.336C19.0655 45.4053 19.0068 45.44 18.9268 45.44H18.6068ZM24.525 47.048C23.8583 47.048 23.365 46.8747 23.045 46.528C22.725 46.1813 22.565 45.6507 22.565 44.936C22.565 44.2267 22.7223 43.688 23.037 43.32C23.3517 42.952 23.8157 42.768 24.429 42.768C24.973 42.768 25.3837 42.9467 25.661 43.304C25.9383 43.656 26.077 44.1733 26.077 44.856C26.077 44.904 26.045 44.9707 25.981 45.056C25.917 45.1413 25.861 45.184 25.813 45.184H23.285C23.317 45.6267 23.4317 45.952 23.629 46.16C23.8263 46.368 24.1223 46.472 24.517 46.472C24.741 46.472 24.933 46.4453 25.093 46.392C25.2583 46.3333 25.3943 46.2773 25.501 46.224C25.6077 46.1653 25.669 46.136 25.685 46.136C25.7383 46.136 25.797 46.1893 25.861 46.296C25.9303 46.4027 25.965 46.4827 25.965 46.536C25.965 46.6 25.8983 46.6747 25.765 46.76C25.6317 46.84 25.453 46.9093 25.229 46.968C25.0103 47.0213 24.7757 47.048 24.525 47.048ZM25.365 44.608C25.365 43.7653 25.045 43.344 24.405 43.344C23.717 43.344 23.3437 43.7653 23.285 44.608H25.365ZM28.3274 47.048C28.0127 47.048 27.738 46.9573 27.5034 46.776C27.2687 46.5947 27.0874 46.3413 26.9594 46.016C26.8367 45.6907 26.7754 45.3227 26.7754 44.912C26.7754 44.4587 26.842 44.072 26.9754 43.752C27.114 43.4267 27.306 43.1813 27.5514 43.016C27.7967 42.8507 28.0794 42.768 28.3994 42.768C28.634 42.768 28.8394 42.8027 29.0154 42.872C29.1967 42.9413 29.3727 43.0427 29.5434 43.176V41.16C29.5434 41.0427 29.65 40.984 29.8634 40.984H29.8954C30.1087 40.984 30.2154 41.0427 30.2154 41.16V45.816C30.2154 46.168 30.2314 46.4213 30.2634 46.576C30.2954 46.7253 30.3114 46.808 30.3114 46.824C30.3114 46.888 30.2607 46.936 30.1594 46.968C30.058 46.9947 29.9647 47.008 29.8794 47.008C29.8047 47.008 29.7487 46.968 29.7114 46.888C29.6794 46.8027 29.6527 46.7147 29.6314 46.624C29.6154 46.5333 29.6047 46.4747 29.5994 46.448C29.2154 46.848 28.7914 47.048 28.3274 47.048ZM28.4634 46.464C28.6447 46.464 28.8287 46.416 29.0154 46.32C29.2074 46.224 29.3834 46.088 29.5434 45.912V43.72C29.2554 43.48 28.9274 43.36 28.5594 43.36C28.202 43.36 27.9327 43.488 27.7514 43.744C27.57 44 27.4794 44.368 27.4794 44.848C27.4794 45.3653 27.5647 45.7653 27.7354 46.048C27.906 46.3253 28.1487 46.464 28.4634 46.464ZM31.9308 47.016C31.7175 47.016 31.6108 46.9573 31.6108 46.84V42.976C31.6108 42.8587 31.7175 42.8 31.9308 42.8H31.9628C32.1761 42.8 32.2828 42.8587 32.2828 42.976V46.84C32.2828 46.9573 32.1761 47.016 31.9628 47.016H31.9308ZM31.9468 42.24C31.7121 42.24 31.5948 42.1813 31.5948 42.064V41.584C31.5948 41.4667 31.7121 41.408 31.9468 41.408C32.1815 41.408 32.2988 41.4667 32.2988 41.584V42.064C32.2988 42.1813 32.1815 42.24 31.9468 42.24ZM35.384 47.048C34.7227 47.048 34.2293 46.8773 33.904 46.536C33.5787 46.1947 33.416 45.6453 33.416 44.888C33.416 44.1253 33.5973 43.5813 33.96 43.256C34.3227 42.9307 34.7733 42.768 35.312 42.768C35.6213 42.768 35.8987 42.8053 36.144 42.88C36.3893 42.9547 36.512 43.04 36.512 43.136C36.512 43.2053 36.48 43.296 36.416 43.408C36.3573 43.5147 36.304 43.568 36.256 43.568C36.2453 43.568 36.232 43.5653 36.216 43.56C36.2053 43.5493 36.1893 43.5413 36.168 43.536C35.88 43.408 35.5893 43.344 35.296 43.344C34.5227 43.344 34.136 43.8533 34.136 44.872C34.136 45.4373 34.2293 45.8453 34.416 46.096C34.608 46.3467 34.928 46.472 35.376 46.472C35.7013 46.472 36.0027 46.4027 36.28 46.264L36.368 46.232C36.4213 46.232 36.48 46.2853 36.544 46.392C36.608 46.4933 36.64 46.576 36.64 46.64C36.64 46.704 36.5813 46.768 36.464 46.832C36.352 46.8907 36.2 46.9413 36.008 46.984C35.816 47.0267 35.608 47.048 35.384 47.048ZM38.6428 47.048C38.2321 47.048 37.9015 46.9467 37.6508 46.744C37.4001 46.5413 37.2748 46.2427 37.2748 45.848C37.2748 45.4267 37.4001 45.112 37.6508 44.904C37.9068 44.6907 38.2188 44.5547 38.5868 44.496C38.9548 44.432 39.4028 44.3973 39.9308 44.392V44.016C39.9308 43.8187 39.8615 43.6587 39.7228 43.536C39.5841 43.408 39.3601 43.344 39.0508 43.344C38.8161 43.344 38.6108 43.3733 38.4348 43.432C38.2588 43.4853 38.1121 43.5413 37.9948 43.6C37.8775 43.6533 37.8135 43.68 37.8028 43.68C37.7495 43.68 37.6881 43.6267 37.6188 43.52C37.5548 43.4133 37.5228 43.3333 37.5228 43.28C37.5228 43.2107 37.5921 43.136 37.7308 43.056C37.8748 42.976 38.0641 42.9093 38.2988 42.856C38.5335 42.7973 38.7761 42.768 39.0268 42.768C39.5228 42.768 39.9095 42.88 40.1868 43.104C40.4641 43.3227 40.6028 43.6293 40.6028 44.024V45.816C40.6028 46.168 40.6188 46.4213 40.6508 46.576C40.6828 46.7253 40.6988 46.808 40.6988 46.824C40.6988 46.888 40.6481 46.936 40.5468 46.968C40.4455 46.9947 40.3521 47.008 40.2668 47.008C40.1921 47.008 40.1361 46.968 40.0988 46.888C40.0668 46.8027 40.0401 46.7147 40.0188 46.624C40.0028 46.5333 39.9921 46.4747 39.9868 46.448C39.6241 46.848 39.1761 47.048 38.6428 47.048ZM38.6748 46.464C38.9361 46.464 39.1601 46.416 39.3468 46.32C39.5388 46.224 39.7335 46.088 39.9308 45.912V44.968C39.5308 44.9733 39.2028 44.9893 38.9468 45.016C38.6961 45.0427 38.4748 45.1173 38.2828 45.24C38.0908 45.3627 37.9948 45.552 37.9948 45.808C37.9948 46.0213 38.0508 46.184 38.1628 46.296C38.2801 46.408 38.4508 46.464 38.6748 46.464ZM42.9302 47.048C42.6635 47.048 42.4235 46.968 42.2102 46.808C42.0022 46.6427 41.8982 46.3547 41.8982 45.944V41.16C41.8982 41.0427 42.0049 40.984 42.2182 40.984H42.2502C42.4635 40.984 42.5702 41.0427 42.5702 41.16V45.88C42.5702 46.104 42.6075 46.2587 42.6822 46.344C42.7622 46.4293 42.8689 46.472 43.0022 46.472C43.1035 46.472 43.1782 46.4667 43.2262 46.456C43.2795 46.44 43.3195 46.432 43.3462 46.432C43.3942 46.432 43.4342 46.4827 43.4662 46.584C43.4982 46.68 43.5142 46.7547 43.5142 46.808C43.5142 46.968 43.3195 47.048 42.9302 47.048ZM20.9676 55.048C20.6476 55.048 20.3516 55.0107 20.0796 54.936C19.8076 54.8613 19.6023 54.7707 19.4636 54.664C19.3623 54.5893 19.3116 54.5227 19.3116 54.464C19.3116 54.4 19.3463 54.312 19.4156 54.2C19.4903 54.088 19.549 54.032 19.5916 54.032C19.613 54.032 19.669 54.0587 19.7596 54.112C19.925 54.2027 20.101 54.28 20.2876 54.344C20.4796 54.408 20.7063 54.44 20.9676 54.44C21.277 54.44 21.5276 54.3547 21.7196 54.184C21.917 54.008 22.0156 53.7787 22.0156 53.496C22.0156 53.2987 21.9623 53.136 21.8556 53.008C21.749 52.8747 21.6183 52.7707 21.4636 52.696C21.3143 52.616 21.0956 52.52 20.8076 52.408C20.4983 52.2853 20.253 52.1733 20.0716 52.072C19.8903 51.9707 19.7356 51.8213 19.6076 51.624C19.4796 51.4213 19.4156 51.1573 19.4156 50.832C19.4156 50.544 19.4876 50.288 19.6316 50.064C19.781 49.84 19.989 49.6667 20.2556 49.544C20.5276 49.416 20.8396 49.352 21.1916 49.352C21.373 49.352 21.5756 49.3787 21.7996 49.432C22.0236 49.48 22.197 49.5467 22.3196 49.632C22.4263 49.696 22.4796 49.7653 22.4796 49.84C22.4796 49.8987 22.445 49.984 22.3756 50.096C22.3116 50.208 22.261 50.264 22.2236 50.264C22.197 50.264 22.157 50.2507 22.1036 50.224C22.0556 50.1973 22.0236 50.1787 22.0076 50.168C21.741 50.0293 21.4636 49.96 21.1756 49.96C20.8663 49.96 20.6156 50.04 20.4236 50.2C20.237 50.36 20.1436 50.5813 20.1436 50.864C20.1436 51.0453 20.189 51.192 20.2796 51.304C20.3756 51.416 20.4823 51.5013 20.5996 51.56C20.7223 51.6133 20.933 51.6987 21.2316 51.816C21.5516 51.9387 21.813 52.0587 22.0156 52.176C22.2183 52.288 22.389 52.4533 22.5276 52.672C22.6716 52.8853 22.7436 53.16 22.7436 53.496C22.7436 53.976 22.5836 54.3547 22.2636 54.632C21.9436 54.9093 21.5116 55.048 20.9676 55.048ZM24.0716 55.016C23.8583 55.016 23.7516 54.9573 23.7516 54.84V49.16C23.7516 49.0427 23.8583 48.984 24.0716 48.984H24.1036C24.317 48.984 24.4236 49.0427 24.4236 49.16V51.32C24.5836 51.16 24.7676 51.0293 24.9756 50.928C25.189 50.8213 25.413 50.768 25.6476 50.768C25.9836 50.768 26.2796 50.864 26.5356 51.056C26.7916 51.2427 26.9196 51.5787 26.9196 52.064V54.84C26.9196 54.9573 26.813 55.016 26.5996 55.016H26.5676C26.3543 55.016 26.2476 54.9573 26.2476 54.84V52.128C26.2476 51.888 26.1783 51.6987 26.0396 51.56C25.901 51.4213 25.6983 51.352 25.4316 51.352C25.2343 51.352 25.0476 51.408 24.8716 51.52C24.6956 51.6267 24.5463 51.7573 24.4236 51.912V54.84C24.4236 54.9573 24.317 55.016 24.1036 55.016H24.0716ZM29.8351 55.048C29.2324 55.048 28.7711 54.8667 28.4511 54.504C28.1364 54.1413 27.9791 53.616 27.9791 52.928C27.9791 52.2347 28.1391 51.7013 28.4591 51.328C28.7791 50.9547 29.2377 50.768 29.8351 50.768C30.4217 50.768 30.8697 50.9547 31.1791 51.328C31.4937 51.696 31.6511 52.2293 31.6511 52.928C31.6511 53.6213 31.4964 54.1493 31.1871 54.512C30.8831 54.8693 30.4324 55.048 29.8351 55.048ZM29.8111 54.472C30.2004 54.472 30.4884 54.3467 30.6751 54.096C30.8617 53.84 30.9551 53.4453 30.9551 52.912C30.9551 52.3787 30.8617 51.984 30.6751 51.728C30.4884 51.472 30.2004 51.344 29.8111 51.344C29.4217 51.344 29.1364 51.472 28.9551 51.728C28.7737 51.9787 28.6831 52.3733 28.6831 52.912C28.6831 53.4453 28.7737 53.84 28.9551 54.096C29.1364 54.3467 29.4217 54.472 29.8111 54.472ZM33.1018 56.664C32.8884 56.664 32.7818 56.6053 32.7818 56.488V52.032C32.7818 51.68 32.7658 51.4293 32.7338 51.28C32.7018 51.1253 32.6858 51.04 32.6858 51.024C32.6858 50.96 32.7364 50.9147 32.8378 50.888C32.9391 50.856 33.0324 50.84 33.1178 50.84C33.1924 50.84 33.2458 50.88 33.2778 50.96C33.3151 51.0347 33.3418 51.1147 33.3578 51.2C33.3791 51.2853 33.3924 51.3413 33.3978 51.368C33.7818 50.968 34.2058 50.768 34.6698 50.768C34.9951 50.768 35.2724 50.8613 35.5018 51.048C35.7364 51.2293 35.9151 51.4827 36.0378 51.808C36.1604 52.128 36.2218 52.496 36.2218 52.912C36.2218 53.3653 36.1524 53.752 36.0138 54.072C35.8804 54.392 35.6911 54.6347 35.4458 54.8C35.2004 54.9653 34.9178 55.048 34.5978 55.048C34.3631 55.048 34.1551 55.0133 33.9738 54.944C33.7978 54.8747 33.6244 54.7733 33.4538 54.64V56.488C33.4538 56.6053 33.3471 56.664 33.1338 56.664H33.1018ZM34.4457 54.456C34.7978 54.456 35.0644 54.328 35.2458 54.072C35.4271 53.816 35.5178 53.448 35.5178 52.968C35.5178 52.4507 35.4324 52.0533 35.2618 51.776C35.0911 51.4933 34.8484 51.352 34.5338 51.352C34.3524 51.352 34.1658 51.4 33.9738 51.496C33.7871 51.592 33.6138 51.728 33.4538 51.904V54.096C33.7418 54.336 34.0724 54.456 34.4457 54.456ZM38.2637 55.072C38.0344 55.072 37.821 55.0453 37.6237 54.992C37.4317 54.9333 37.277 54.864 37.1597 54.784C37.0477 54.704 36.9917 54.632 36.9917 54.568C36.9917 54.5147 37.0237 54.4347 37.0877 54.328C37.157 54.2213 37.2184 54.168 37.2717 54.168C37.2824 54.168 37.333 54.1973 37.4237 54.256C37.5144 54.3147 37.6264 54.368 37.7597 54.416C37.8984 54.464 38.0504 54.488 38.2157 54.488C38.4717 54.488 38.6664 54.4373 38.7997 54.336C38.933 54.2347 38.9997 54.088 38.9997 53.896C38.9997 53.704 38.933 53.5573 38.7997 53.456C38.6717 53.3547 38.4717 53.2587 38.1997 53.168C37.9704 53.0933 37.7784 53.0133 37.6237 52.928C37.469 52.8373 37.341 52.712 37.2397 52.552C37.1384 52.3867 37.0877 52.176 37.0877 51.92C37.0877 51.696 37.1437 51.496 37.2557 51.32C37.373 51.144 37.5304 51.008 37.7277 50.912C37.9304 50.8107 38.1597 50.76 38.4157 50.76C38.6877 50.76 38.9304 50.7947 39.1437 50.864C39.3624 50.9333 39.4717 51.0133 39.4717 51.104C39.4717 51.1733 39.4397 51.264 39.3757 51.376C39.317 51.4827 39.2637 51.536 39.2157 51.536C39.1997 51.5307 39.1277 51.496 38.9997 51.432C38.877 51.3627 38.7064 51.328 38.4877 51.328C38.2797 51.328 38.109 51.376 37.9757 51.472C37.8424 51.568 37.7757 51.6987 37.7757 51.864C37.7757 52.0187 37.8184 52.1387 37.9037 52.224C37.9944 52.3093 38.1597 52.392 38.3997 52.472C38.8157 52.6107 39.133 52.7787 39.3517 52.976C39.5704 53.1733 39.6797 53.456 39.6797 53.824C39.6797 54.0587 39.6157 54.272 39.4877 54.464C39.365 54.6507 39.1944 54.8 38.9757 54.912C38.7624 55.0187 38.525 55.072 38.2637 55.072Z" fill="#009900"/>
<path fill-rule="evenodd" clip-rule="evenodd" d="M23.75 14.375C23.2527 14.375 22.7758 14.5725 22.4241 14.9242C22.0725 15.2758 21.875 15.7527 21.875 16.25V35.625H25.625V31.25C25.625 30.4212 25.9542 29.6263 26.5403 29.0403C27.1263 28.4542 27.9212 28.125 28.75 28.125H31.25C32.0788 28.125 32.8737 28.4542 33.4597 29.0403C34.0458 29.6263 34.375 30.4212 34.375 31.25V35.625H38.125V16.25C38.125 15.7527 37.9274 15.2758 37.5758 14.9242C37.2242 14.5725 36.7473 14.375 36.25 14.375H23.75ZM33.7516 36.875H38.7478L38.75 36.875L38.7522 36.875H41.25C41.5952 36.875 41.875 36.5952 41.875 36.25C41.875 35.9048 41.5952 35.625 41.25 35.625H39.375V16.25C39.375 15.4212 39.0457 14.6263 38.4597 14.0403C37.8736 13.4542 37.0788 13.125 36.25 13.125H23.75C22.9212 13.125 22.1263 13.4542 21.5403 14.0403C20.9542 14.6263 20.625 15.4212 20.625 16.25V35.625H18.75C18.4048 35.625 18.125 35.9048 18.125 36.25C18.125 36.5952 18.4048 36.875 18.75 36.875H21.2478L21.25 36.875L21.2522 36.875H26.2484L26.25 36.875L26.2516 36.875H33.7484L33.75 36.875L33.7516 36.875ZM33.125 35.625V31.25C33.125 30.7527 32.9275 30.2758 32.5758 29.9242C32.2242 29.5725 31.7473 29.375 31.25 29.375H28.75C28.2527 29.375 27.7758 29.5725 27.4242 29.9242C27.0725 30.2758 26.875 30.7527 26.875 31.25V35.625H33.125ZM26.8749 21.25C26.8749 20.9048 27.1548 20.625 27.4999 20.625H29.375V18.7499C29.375 18.4048 29.6548 18.1249 30 18.1249C30.3452 18.1249 30.625 18.4048 30.625 18.7499V20.625H32.4999C32.8451 20.625 33.1249 20.9048 33.1249 21.25C33.1249 21.5952 32.8451 21.875 32.4999 21.875H30.625V23.7499C30.625 24.0951 30.3452 24.3749 30 24.3749C29.6548 24.3749 29.375 24.0951 29.375 23.7499V21.875H27.4999C27.1548 21.875 26.8749 21.5952 26.8749 21.25Z" fill="#009900"/>
</svg>
