<svg width="60" height="60" viewBox="0 0 60 60" fill="none" xmlns="http://www.w3.org/2000/svg">
<circle cx="30" cy="30" r="30" fill="#EABAFE"/>
<path d="M21.9676 47.048C21.6476 47.048 21.3516 47.0107 21.0796 46.936C20.8076 46.8613 20.6023 46.7707 20.4636 46.664C20.3623 46.5893 20.3116 46.5227 20.3116 46.464C20.3116 46.4 20.3463 46.312 20.4156 46.2C20.4903 46.088 20.549 46.032 20.5916 46.032C20.613 46.032 20.669 46.0587 20.7596 46.112C20.925 46.2027 21.101 46.28 21.2876 46.344C21.4796 46.408 21.7063 46.44 21.9676 46.44C22.277 46.44 22.5276 46.3547 22.7196 46.184C22.917 46.008 23.0156 45.7787 23.0156 45.496C23.0156 45.2987 22.9623 45.136 22.8556 45.008C22.749 44.8747 22.6183 44.7707 22.4636 44.696C22.3143 44.616 22.0956 44.52 21.8076 44.408C21.4983 44.2853 21.253 44.1733 21.0716 44.072C20.8903 43.9707 20.7356 43.8213 20.6076 43.624C20.4796 43.4213 20.4156 43.1573 20.4156 42.832C20.4156 42.544 20.4876 42.288 20.6316 42.064C20.781 41.84 20.989 41.6667 21.2556 41.544C21.5276 41.416 21.8396 41.352 22.1916 41.352C22.373 41.352 22.5756 41.3787 22.7996 41.432C23.0236 41.48 23.197 41.5467 23.3196 41.632C23.4263 41.696 23.4796 41.7653 23.4796 41.84C23.4796 41.8987 23.445 41.984 23.3756 42.096C23.3116 42.208 23.261 42.264 23.2236 42.264C23.197 42.264 23.157 42.2507 23.1036 42.224C23.0556 42.1973 23.0236 42.1787 23.0076 42.168C22.741 42.0293 22.4636 41.96 22.1756 41.96C21.8663 41.96 21.6156 42.04 21.4236 42.2C21.237 42.36 21.1436 42.5813 21.1436 42.864C21.1436 43.0453 21.189 43.192 21.2796 43.304C21.3756 43.416 21.4823 43.5013 21.5996 43.56C21.7223 43.6133 21.933 43.6987 22.2316 43.816C22.5516 43.9387 22.813 44.0587 23.0156 44.176C23.2183 44.288 23.389 44.4533 23.5276 44.672C23.6716 44.8853 23.7436 45.16 23.7436 45.496C23.7436 45.976 23.5836 46.3547 23.2636 46.632C22.9436 46.9093 22.5116 47.048 21.9676 47.048ZM25.0716 47.016C24.8583 47.016 24.7516 46.9573 24.7516 46.84V41.16C24.7516 41.0427 24.8583 40.984 25.0716 40.984H25.1036C25.317 40.984 25.4236 41.0427 25.4236 41.16V43.32C25.5836 43.16 25.7676 43.0293 25.9756 42.928C26.189 42.8213 26.413 42.768 26.6476 42.768C26.9836 42.768 27.2796 42.864 27.5356 43.056C27.7916 43.2427 27.9196 43.5787 27.9196 44.064V46.84C27.9196 46.9573 27.813 47.016 27.5996 47.016H27.5676C27.3543 47.016 27.2476 46.9573 27.2476 46.84V44.128C27.2476 43.888 27.1783 43.6987 27.0396 43.56C26.901 43.4213 26.6983 43.352 26.4316 43.352C26.2343 43.352 26.0476 43.408 25.8716 43.52C25.6956 43.6267 25.5463 43.7573 25.4236 43.912V46.84C25.4236 46.9573 25.317 47.016 25.1036 47.016H25.0716ZM30.8351 47.048C30.2324 47.048 29.7711 46.8667 29.4511 46.504C29.1364 46.1413 28.9791 45.616 28.9791 44.928C28.9791 44.2347 29.1391 43.7013 29.4591 43.328C29.7791 42.9547 30.2377 42.768 30.8351 42.768C31.4217 42.768 31.8697 42.9547 32.1791 43.328C32.4937 43.696 32.6511 44.2293 32.6511 44.928C32.6511 45.6213 32.4964 46.1493 32.1871 46.512C31.8831 46.8693 31.4324 47.048 30.8351 47.048ZM30.8111 46.472C31.2004 46.472 31.4884 46.3467 31.6751 46.096C31.8617 45.84 31.9551 45.4453 31.9551 44.912C31.9551 44.3787 31.8617 43.984 31.6751 43.728C31.4884 43.472 31.2004 43.344 30.8111 43.344C30.4217 43.344 30.1364 43.472 29.9551 43.728C29.7737 43.9787 29.6831 44.3733 29.6831 44.912C29.6831 45.4453 29.7737 45.84 29.9551 46.096C30.1364 46.3467 30.4217 46.472 30.8111 46.472ZM34.1018 48.664C33.8884 48.664 33.7818 48.6053 33.7818 48.488V44.032C33.7818 43.68 33.7658 43.4293 33.7338 43.28C33.7018 43.1253 33.6858 43.04 33.6858 43.024C33.6858 42.96 33.7364 42.9147 33.8378 42.888C33.9391 42.856 34.0324 42.84 34.1178 42.84C34.1924 42.84 34.2458 42.88 34.2778 42.96C34.3151 43.0347 34.3418 43.1147 34.3578 43.2C34.3791 43.2853 34.3924 43.3413 34.3978 43.368C34.7818 42.968 35.2058 42.768 35.6698 42.768C35.9951 42.768 36.2724 42.8613 36.5018 43.048C36.7364 43.2293 36.9151 43.4827 37.0378 43.808C37.1604 44.128 37.2218 44.496 37.2218 44.912C37.2218 45.3653 37.1524 45.752 37.0138 46.072C36.8804 46.392 36.6911 46.6347 36.4458 46.8C36.2004 46.9653 35.9178 47.048 35.5978 47.048C35.3631 47.048 35.1551 47.0133 34.9738 46.944C34.7978 46.8747 34.6244 46.7733 34.4538 46.64V48.488C34.4538 48.6053 34.3471 48.664 34.1338 48.664H34.1018ZM35.4457 46.456C35.7978 46.456 36.0644 46.328 36.2458 46.072C36.4271 45.816 36.5178 45.448 36.5178 44.968C36.5178 44.4507 36.4324 44.0533 36.2618 43.776C36.0911 43.4933 35.8484 43.352 35.5338 43.352C35.3524 43.352 35.1658 43.4 34.9738 43.496C34.7871 43.592 34.6138 43.728 34.4538 43.904V46.096C34.7418 46.336 35.0724 46.456 35.4457 46.456ZM39.2637 47.072C39.0344 47.072 38.821 47.0453 38.6237 46.992C38.4317 46.9333 38.277 46.864 38.1597 46.784C38.0477 46.704 37.9917 46.632 37.9917 46.568C37.9917 46.5147 38.0237 46.4347 38.0877 46.328C38.157 46.2213 38.2184 46.168 38.2717 46.168C38.2824 46.168 38.333 46.1973 38.4237 46.256C38.5144 46.3147 38.6264 46.368 38.7597 46.416C38.8984 46.464 39.0504 46.488 39.2157 46.488C39.4717 46.488 39.6664 46.4373 39.7997 46.336C39.933 46.2347 39.9997 46.088 39.9997 45.896C39.9997 45.704 39.933 45.5573 39.7997 45.456C39.6717 45.3547 39.4717 45.2587 39.1997 45.168C38.9704 45.0933 38.7784 45.0133 38.6237 44.928C38.469 44.8373 38.341 44.712 38.2397 44.552C38.1384 44.3867 38.0877 44.176 38.0877 43.92C38.0877 43.696 38.1437 43.496 38.2557 43.32C38.373 43.144 38.5304 43.008 38.7277 42.912C38.9304 42.8107 39.1597 42.76 39.4157 42.76C39.6877 42.76 39.9304 42.7947 40.1437 42.864C40.3624 42.9333 40.4717 43.0133 40.4717 43.104C40.4717 43.1733 40.4397 43.264 40.3757 43.376C40.317 43.4827 40.2637 43.536 40.2157 43.536C40.1997 43.5307 40.1277 43.496 39.9997 43.432C39.877 43.3627 39.7064 43.328 39.4877 43.328C39.2797 43.328 39.109 43.376 38.9757 43.472C38.8424 43.568 38.7757 43.6987 38.7757 43.864C38.7757 44.0187 38.8184 44.1387 38.9037 44.224C38.9944 44.3093 39.1597 44.392 39.3997 44.472C39.8157 44.6107 40.133 44.7787 40.3517 44.976C40.5704 45.1733 40.6797 45.456 40.6797 45.824C40.6797 46.0587 40.6157 46.272 40.4877 46.464C40.365 46.6507 40.1944 46.8 39.9757 46.912C39.7624 47.0187 39.525 47.072 39.2637 47.072Z" fill="#0000E5"/>
<path fill-rule="evenodd" clip-rule="evenodd" d="M20.691 13.4705C20.7969 13.2588 21.0133 13.125 21.25 13.125H38.75C38.9867 13.125 39.2031 13.2588 39.309 13.4705L41.809 18.4705C41.8524 18.5573 41.875 18.653 41.875 18.75V20C41.875 21.1603 41.4141 22.2731 40.5936 23.0936C40.2361 23.4511 39.8231 23.7403 39.3749 23.9529V35.625H41.25C41.5952 35.625 41.875 35.9048 41.875 36.25C41.875 36.5952 41.5952 36.875 41.25 36.875H33.7527C33.7518 36.875 33.7509 36.875 33.75 36.875C33.7491 36.875 33.7482 36.875 33.7473 36.875H26.2527C26.2518 36.875 26.2509 36.875 26.25 36.875C26.2491 36.875 26.2482 36.875 26.2473 36.875H18.75C18.4048 36.875 18.125 36.5952 18.125 36.25C18.125 35.9048 18.4048 35.625 18.75 35.625H20.625V23.9528C20.1768 23.7402 19.7639 23.451 19.4064 23.0936C18.5859 22.2731 18.125 21.1603 18.125 20V18.75C18.125 18.653 18.1476 18.5573 18.191 18.4705L20.691 13.4705ZM26.875 35.625H33.125V31.25C33.125 30.7527 32.9275 30.2758 32.5758 29.9242C32.2242 29.5725 31.7473 29.375 31.25 29.375H28.75C28.2527 29.375 27.7758 29.5725 27.4242 29.9242C27.0725 30.2758 26.875 30.7527 26.875 31.25V35.625ZM34.375 35.625V31.25C34.375 30.4212 34.0458 29.6263 33.4597 29.0403C32.8737 28.4542 32.0788 28.125 31.25 28.125H28.75C27.9212 28.125 27.1263 28.4542 26.5403 29.0403C25.9542 29.6263 25.625 30.4212 25.625 31.25V35.625H21.875V24.3301C22.0808 24.3598 22.2896 24.375 22.5 24.375C23.6603 24.375 24.7731 23.9141 25.5936 23.0936C25.8526 22.8346 26.047 22.4796 26.1955 22.1289C26.2141 22.085 26.2322 22.0404 26.25 21.9953C26.2678 22.0404 26.2859 22.085 26.3045 22.1289C26.453 22.4796 26.6475 22.8346 26.9064 23.0936C27.7269 23.9141 28.8397 24.375 30 24.375C31.1603 24.375 32.2731 23.9141 33.0936 23.0936C33.348 22.8392 33.5678 22.5568 33.75 22.2535C33.9322 22.5568 34.152 22.8392 34.4064 23.0936C35.2269 23.9141 36.3397 24.375 37.5 24.375C37.7104 24.375 37.9191 24.3598 38.1249 24.3302V35.625H34.375ZM26.915 19.375C26.9574 19.7606 27.0334 20.2153 27.1426 20.6616C27.2306 21.0217 27.3365 21.3602 27.4556 21.6415C27.5789 21.9328 27.6976 22.117 27.7903 22.2097C28.3763 22.7958 29.1712 23.125 30 23.125C30.8288 23.125 31.6237 22.7958 32.2097 22.2097C32.7958 21.6237 33.125 20.8288 33.125 20V19.375H26.915ZM34.375 19.375V20C34.375 20.8288 34.7042 21.6237 35.2903 22.2097C35.8763 22.7958 36.6712 23.125 37.5 23.125C38.3288 23.125 39.1237 22.7958 39.7097 22.2097C40.2958 21.6237 40.625 20.8288 40.625 20V19.375H34.375ZM40.2387 18.125H19.7613L21.6363 14.375H38.3637L40.2387 18.125ZM19.375 19.375H25.585C25.5426 19.7606 25.4666 20.2153 25.3574 20.6616C25.2694 21.0217 25.1635 21.3602 25.0444 21.6415C24.9211 21.9328 24.8024 22.117 24.7097 22.2097C24.1237 22.7958 23.3288 23.125 22.5 23.125C21.6712 23.125 20.8763 22.7958 20.2903 22.2097C19.7042 21.6237 19.375 20.8288 19.375 20V19.375Z" fill="#0000E5"/>
</svg>
